<!--?xml version="1.0" standalone="no"?--><svg version="1.0" xmlns="http://www.w3.org/2000/svg" width="286.000000pt" height="300.000000pt" viewBox="0 0 286.000000 300.000000" preserveAspectRatio="xMidYMid meet">
<metadata>
  <rdf:rdf xmlns:rdf="http://www.w3.org/1999/02/22-rdf-syntax-ns#" xmlns:rdfs="http://www.w3.org/2000/01/rdf-schema#" xmlns:dc="http://purl.org/dc/elements/1.1/">
    <rdf:description dc:title="snowflake in light blue" dc:publisher="Hiox" dc:date="2015-12-01" dc:format="image/svg+xml" dc:language="en">
      <dc:creator>
        <rdf:bag>
          <rdf:li>svgimages.com</rdf:li>
        </rdf:bag>
      </dc:creator>
    </rdf:description>
  </rdf:rdf>
</metadata>
<g transform="translate(0.000000,300.000000) scale(0.100000,-0.100000)" fill="#7DCAD8" stroke="none">
<path d="M1215 2948 c-16 -27 -37 -57 -45 -67 -8 -9 -25 -31 -37 -48 l-22 -31
22 -20 c12 -11 40 -31 62 -44 22 -13 57 -34 78 -47 l37 -23 0 -72 c0 -40 -3
-76 -7 -79 -3 -4 -21 3 -40 14 -18 11 -52 32 -76 45 -89 50 -85 49 -106 23
-11 -13 -20 -28 -21 -34 0 -5 -18 -35 -40 -66 -22 -32 -40 -61 -40 -67 0 -13
29 -37 85 -68 110 -61 127 -74 121 -97 -3 -12 -6 -48 -6 -79 l0 -56 -57 -31
c-31 -17 -67 -31 -79 -31 -12 0 -48 15 -80 33 l-59 33 4 131 3 131 -43 6 c-24
3 -80 8 -125 11 l-81 6 -6 -77 c-4 -42 -7 -103 -7 -136 0 -32 -3 -58 -6 -58
-3 0 -34 14 -69 31 l-63 30 -6 87 c-3 48 -8 111 -12 140 l-6 52 -93 0 c-52 0
-105 -4 -120 -10 -25 -10 -26 -12 -20 -72 3 -35 11 -91 17 -125 9 -48 9 -65
-1 -77 -13 -15 -171 -96 -189 -96 -23 0 -31 -26 -18 -63 7 -20 15 -40 19 -43
4 -4 7 -13 7 -20 0 -7 14 -35 31 -63 l31 -50 74 39 c41 21 74 36 74 32 0 -4 5
0 10 8 17 27 80 18 134 -19 l48 -34 -48 -30 c-27 -17 -67 -40 -88 -51 -65 -35
-65 -42 -7 -149 29 -54 58 -97 64 -97 7 0 24 8 37 18 24 16 72 44 137 78 34
18 24 21 141 -40 32 -18 33 -19 31 -84 -1 -37 -5 -75 -8 -84 -9 -24 -110 -88
-139 -88 -12 0 -42 14 -65 31 -23 17 -65 45 -94 64 l-51 33 -30 -32 c-33 -35
-122 -162 -122 -173 0 -8 95 -65 118 -71 6 -2 12 -8 12 -13 0 -5 5 -9 12 -9
15 0 78 -49 78 -61 0 -5 -10 -14 -22 -19 -13 -5 -36 -18 -53 -29 -16 -12 -39
-21 -51 -21 -11 0 -69 25 -128 56 -59 31 -111 52 -116 48 -4 -5 -29 -51 -56
-103 l-48 -94 24 -16 c13 -9 60 -32 105 -51 133 -57 125 -45 115 -185 -6 -65
-6 -123 -2 -127 7 -7 231 -24 233 -17 1 2 4 56 8 119 l6 115 55 33 c30 17 59
31 65 29 5 -2 12 -50 15 -108 3 -57 9 -110 13 -116 6 -9 41 -13 118 -13 l109
0 1 83 c1 97 8 169 17 179 4 3 33 20 66 38 l58 31 69 -41 70 -41 -3 -85 -3
-86 -104 -53 c-57 -30 -106 -56 -108 -59 -7 -7 15 -70 55 -156 19 -41 36 -76
37 -78 2 -2 29 12 61 29 33 18 74 40 92 50 18 10 38 22 45 27 7 5 22 13 35 16
22 7 22 6 22 -71 l0 -79 -97 -65 c-54 -35 -104 -65 -110 -67 -20 -5 -15 -30
14 -75 16 -23 34 -51 41 -62 7 -11 18 -32 25 -48 14 -32 47 -36 65 -7 7 11 17
20 24 20 6 0 34 17 62 38 28 21 65 47 83 57 34 20 26 23 110 -45 7 -6 16 -10
21 -10 5 0 31 -19 57 -42 29 -26 50 -38 52 -31 3 7 34 54 69 104 l65 92 -28
23 c-15 12 -39 29 -53 36 -42 21 -105 62 -112 73 -9 12 -10 139 -1 148 3 4 21
-3 40 -14 50 -31 115 -67 141 -79 20 -8 27 -6 43 12 10 13 18 28 19 34 0 6 18
36 40 68 22 31 40 63 40 71 0 8 -19 24 -42 36 -24 11 -69 37 -100 57 l-57 37
-1 82 0 82 33 17 c17 9 34 20 37 23 3 4 19 13 36 20 27 11 36 9 89 -19 33 -17
65 -36 71 -41 8 -7 10 -47 6 -138 l-5 -129 39 -5 c21 -4 78 -9 127 -12 l87 -7
2 104 c0 56 0 113 -1 124 -3 43 22 47 88 14 55 -28 61 -34 61 -63 0 -17 5 -80
12 -140 l12 -109 113 4 c62 2 115 7 118 10 5 5 -5 121 -22 246 -4 31 -2 42 8
42 12 0 124 50 181 81 10 5 25 9 34 9 8 0 14 3 12 8 -13 27 -44 96 -67 147
-14 33 -30 63 -35 67 -12 8 -29 2 -108 -44 -80 -46 -114 -54 -148 -34 -14 8
-34 19 -45 25 -26 11 -52 41 -36 41 6 0 33 16 60 35 26 19 52 35 57 35 5 0 23
11 39 24 l30 25 -50 96 c-27 54 -55 99 -62 102 -6 3 -29 -7 -50 -21 -21 -14
-43 -26 -49 -26 -6 0 -23 -9 -37 -20 -14 -12 -40 -26 -57 -31 -28 -10 -36 -7
-95 31 l-65 42 0 69 0 69 51 40 c81 64 103 64 192 -2 47 -35 107 -72 119 -73
12 0 148 187 148 205 0 5 -5 10 -11 10 -6 0 -30 14 -54 30 -24 17 -48 30 -54
30 -6 0 -11 5 -11 10 0 6 -5 10 -12 10 -15 0 -78 48 -78 60 0 5 28 25 62 44
l62 35 116 -60 c64 -32 119 -59 123 -59 7 0 67 110 67 123 0 5 9 22 21 38 22
32 20 59 -6 59 -8 0 -15 3 -15 8 0 4 -39 23 -85 42 -132 54 -127 46 -115 170
6 58 12 114 13 125 2 19 -7 21 -116 29 -64 5 -120 6 -124 3 -3 -4 -8 -55 -11
-114 -5 -113 -13 -136 -56 -149 -11 -4 -32 -15 -45 -25 -13 -10 -27 -16 -32
-13 -5 3 -9 54 -9 114 0 69 -4 111 -11 116 -6 3 -60 9 -120 12 l-109 5 0 -85
c0 -47 -3 -106 -6 -130 -6 -45 -8 -46 -73 -77 -36 -17 -70 -31 -74 -31 -4 0
-34 17 -67 37 l-60 38 0 82 0 82 108 55 c120 61 122 64 84 147 -11 24 -30 68
-42 97 -12 28 -24 52 -27 52 -2 0 -39 -20 -83 -45 -44 -25 -82 -45 -85 -45 -3
0 -19 -10 -34 -21 -16 -12 -34 -18 -40 -15 -6 4 -11 38 -11 80 l0 72 45 32
c25 18 48 32 51 32 2 0 27 16 55 35 28 19 55 35 60 35 17 0 9 37 -17 71 -14
19 -39 58 -55 87 -32 55 -48 62 -76 37 -39 -34 -120 -92 -160 -115 l-43 -24
-22 21 c-13 11 -45 34 -72 52 -28 18 -64 43 -80 56 l-31 23 -30 -50z m103 -88
c29 -22 55 -40 58 -40 3 0 21 -12 40 -26 41 -32 56 -27 140 37 28 21 55 39 59
39 5 0 17 8 28 17 18 17 20 16 48 -15 24 -27 27 -36 19 -52 -6 -11 -16 -20
-23 -20 -7 0 -37 -19 -67 -41 -30 -23 -65 -45 -77 -50 -22 -8 -23 -13 -22
-111 1 -57 4 -129 8 -161 l6 -59 27 21 c14 12 30 21 34 21 4 0 51 25 105 55
53 30 101 55 106 55 5 0 19 -23 30 -50 l21 -51 -21 -14 c-12 -8 -47 -26 -77
-40 -30 -15 -67 -33 -82 -42 l-28 -14 0 -128 c0 -125 1 -129 23 -135 12 -3 53
-26 90 -51 38 -25 74 -45 80 -45 7 0 58 23 113 51 l102 52 7 106 c4 58 9 109
11 112 1 3 22 3 46 0 l43 -6 5 -141 5 -142 35 19 c19 10 46 24 60 31 14 7 51
29 83 50 32 21 63 38 68 38 18 0 29 51 29 136 l0 85 53 -3 52 -3 -3 -65 c-1
-36 -5 -90 -8 -120 l-5 -55 63 -29 c134 -62 168 -79 168 -83 0 -5 -36 -67 -46
-81 -1 -2 -51 22 -110 52 l-108 57 -28 -21 c-15 -11 -31 -20 -35 -20 -5 0 -32
-18 -62 -40 -29 -22 -57 -40 -62 -40 -12 0 -69 -41 -69 -50 0 -3 15 -14 33
-23 17 -9 50 -28 72 -41 22 -14 66 -40 98 -58 31 -18 57 -37 57 -42 0 -18 -52
-86 -66 -86 -14 0 -60 28 -136 83 -28 20 -54 37 -57 37 -3 0 -31 -16 -61 -35
-30 -18 -76 -46 -101 -60 -54 -31 -59 -47 -59 -180 0 -79 0 -80 33 -101 117
-76 163 -104 173 -104 12 0 105 49 114 60 8 9 59 30 73 30 7 0 21 -16 32 -35
18 -35 18 -36 -1 -55 -10 -10 -41 -31 -69 -45 -27 -15 -59 -35 -70 -45 -11 -9
-35 -23 -52 -30 -18 -7 -33 -16 -33 -19 0 -4 15 -15 33 -24 17 -10 59 -33 92
-52 33 -19 78 -44 101 -56 l40 -21 87 41 c47 22 88 41 91 41 7 0 46 -66 46
-78 0 -5 -28 -23 -62 -39 -34 -15 -80 -37 -102 -48 l-41 -20 0 -130 0 -130
-40 0 -40 0 -3 103 c-3 117 -12 139 -70 168 -20 10 -77 41 -125 68 -48 27 -90
47 -92 45 -2 -3 -5 -70 -6 -151 -1 -80 -4 -150 -8 -156 -3 -5 -28 -6 -56 -3
l-50 6 3 120 2 120 -47 25 c-26 14 -74 40 -107 58 l-60 33 -41 -21 c-22 -12
-67 -37 -100 -55 l-60 -32 -5 -119 c-6 -131 -3 -136 63 -166 15 -7 27 -16 27
-20 0 -5 6 -8 14 -8 8 0 27 -11 43 -24 24 -21 26 -27 18 -51 -17 -48 -38 -53
-97 -22 -135 70 -158 83 -170 95 -6 6 -16 12 -20 12 -4 0 -8 -72 -8 -160 0
-88 4 -160 8 -160 5 0 38 -20 75 -45 37 -25 72 -45 77 -45 18 0 10 -25 -20
-60 -22 -27 -32 -33 -44 -25 -8 6 -49 34 -91 63 -78 55 -98 59 -135 26 -29
-25 -85 -64 -107 -73 -13 -6 -23 -15 -23 -21 0 -18 -26 -11 -49 14 -13 13 -21
32 -19 42 3 18 120 105 167 125 l24 10 -6 151 c-4 83 -9 153 -12 156 -3 3 -15
0 -27 -7 -83 -44 -148 -79 -178 -97 -66 -40 -75 -39 -94 9 -9 23 -16 48 -16
54 0 7 44 34 98 61 l97 50 3 120 c2 89 -1 124 -10 132 -28 23 -182 120 -192
120 -6 0 -27 -10 -46 -22 -42 -27 -62 -38 -117 -67 l-43 -23 -1 -67 c0 -36 -4
-86 -7 -110 l-7 -44 -45 -1 -45 -1 -3 147 -3 147 -27 -12 c-25 -11 -82 -46
-107 -64 -5 -5 -26 -16 -45 -26 -99 -50 -95 -42 -98 -155 l-3 -102 -51 0 -50
0 3 122 4 122 -65 33 c-35 18 -70 33 -76 33 -6 0 -17 7 -24 15 -7 8 -21 15
-31 15 -30 0 -19 70 14 92 6 3 58 -18 115 -48 93 -48 107 -53 121 -40 9 8 27
20 41 26 43 19 193 115 196 125 2 6 -55 44 -126 85 -71 41 -129 78 -130 83 0
14 53 87 64 87 9 0 132 -78 181 -114 8 -6 34 4 76 29 35 21 73 43 84 49 66 36
70 43 73 159 3 106 3 108 -25 132 -15 14 -38 28 -50 31 -13 3 -23 10 -23 15 0
5 -4 9 -10 9 -5 0 -26 11 -46 25 -46 31 -51 31 -108 -2 -125 -74 -134 -75
-158 -32 -30 51 -30 51 71 107 25 13 57 32 71 41 14 9 37 23 53 31 34 17 34
23 -1 41 -15 7 -59 33 -99 56 -39 24 -75 43 -80 43 -4 0 -19 9 -32 19 -24 19
-25 18 -114 -27 l-89 -46 -19 25 c-40 51 -31 79 31 95 14 4 36 15 49 26 13 10
32 18 41 18 10 0 28 8 40 18 23 18 23 20 13 133 -6 63 -8 120 -6 127 3 6 22
12 43 12 46 0 50 -9 50 -135 0 -49 4 -94 8 -100 9 -13 36 -30 87 -55 22 -11
72 -38 110 -60 39 -21 73 -39 77 -40 5 0 8 15 7 33 0 17 2 47 4 65 2 17 4 73
5 123 l2 90 53 -3 52 -3 0 -117 c0 -112 1 -117 25 -135 38 -29 168 -93 188
-92 9 0 58 22 107 48 l90 47 6 115 c3 63 4 119 2 125 -2 5 -38 30 -80 55 -92
53 -104 69 -82 107 12 20 22 27 45 26 26 -2 137 -58 206 -105 15 -11 30 -19
33 -19 3 0 4 70 3 156 -3 143 -5 158 -22 168 -11 6 -25 14 -30 19 -56 40 -84
58 -98 63 -23 8 -23 20 2 51 11 14 20 32 20 39 0 21 11 17 68 -26z" id="node1" class="node"></path>
<path d="M1410 2311 c-5 -11 -10 -74 -10 -139 l0 -120 -37 -20 c-21 -11 -58
-30 -83 -43 -25 -12 -52 -26 -60 -31 -8 -4 -31 -16 -50 -26 -122 -64 -176 -95
-184 -103 -17 -16 -36 -10 -121 42 -89 55 -127 60 -138 20 -7 -28 6 -41 107
-102 l89 -53 -5 -248 c-4 -222 -6 -249 -23 -268 -10 -11 -22 -20 -27 -20 -5 0
-33 -15 -62 -34 -29 -18 -62 -37 -74 -40 -26 -9 -31 -56 -8 -75 16 -13 78 7
131 44 17 11 52 31 77 45 46 24 48 24 80 7 48 -25 99 -57 127 -78 13 -10 28
-19 32 -19 5 0 31 -16 58 -35 26 -19 51 -35 55 -35 4 0 21 -10 39 -22 18 -13
34 -24 36 -26 3 -1 4 -61 2 -133 -2 -112 0 -134 15 -150 41 -46 74 -11 74 79
0 37 3 97 7 134 l6 68 61 34 c34 19 93 50 131 70 39 20 103 55 144 76 40 22
79 40 86 40 7 0 61 -29 118 -64 97 -59 107 -63 126 -49 23 16 26 41 8 63 -13
16 -36 30 -140 88 l-68 37 7 240 c3 132 8 243 10 246 2 4 23 17 46 29 156 80
194 110 177 141 -16 31 -56 22 -149 -31 -48 -27 -96 -50 -107 -50 -15 0 -140
73 -262 152 -14 10 -33 21 -41 25 -8 3 -28 16 -45 27 -16 12 -39 26 -50 32
-18 10 -20 23 -23 139 -1 74 -7 134 -14 142 -16 19 -56 16 -68 -6z m90 -366
c19 -14 37 -25 41 -25 3 0 36 -19 72 -42 71 -47 167 -107 196 -123 49 -28 51
-33 51 -144 0 -58 -5 -170 -12 -248 l-12 -141 -35 -16 c-20 -9 -67 -33 -106
-54 -221 -119 -265 -142 -277 -142 -18 0 -73 28 -130 68 -26 17 -50 32 -53 32
-4 0 -25 13 -48 28 -46 30 -58 38 -134 82 -28 17 -53 36 -55 43 -2 7 -1 115 3
241 l7 230 28 23 c16 13 67 43 114 67 150 77 245 129 255 137 17 17 61 9 95
-16z" id="node2" class="node"></path>
<path d="M1404 1850 c-5 -5 -28 -19 -50 -32 -23 -13 -76 -42 -119 -65 -42 -24
-83 -50 -91 -58 -9 -8 -20 -15 -25 -15 -6 0 -8 -71 -7 -181 l3 -182 114 -68
c62 -38 118 -69 122 -69 5 0 9 -3 9 -8 0 -13 57 -33 76 -26 10 4 82 43 160 87
l141 79 7 97 c9 136 8 271 -3 271 -4 0 -48 25 -97 55 -125 77 -211 125 -221
125 -5 0 -13 -4 -19 -10z m124 -144 c29 -20 55 -36 58 -36 4 0 22 -11 41 -26
l33 -25 0 -98 c0 -154 0 -153 -94 -208 -150 -88 -143 -86 -207 -43 -24 16 -48
30 -54 30 -5 1 -30 16 -55 34 l-45 33 -3 130 -3 131 28 20 c15 11 52 32 82 48
30 16 63 35 75 42 33 20 88 8 144 -32z" id="node3" class="node"></path>
</g>
<g transform="translate(0.000000,300.000000) scale(0.100000,-0.100000)" fill="#FFFFFF" stroke="none">
<path d="M0 2000 c0 -550 2 -1000 5 -1000 2 0 23 37 45 83 23 45 45 86 50 91
4 4 57 -17 116 -48 59 -31 117 -56 128 -56 12 0 35 9 51 21 17 11 40 24 53 29
12 5 22 14 22 19 0 12 -63 61 -78 61 -7 0 -12 4 -12 9 0 5 -6 11 -12 13 -23 6
-118 63 -118 71 0 11 89 138 122 173 l30 32 51 -33 c29 -19 71 -47 94 -64 23
-17 53 -31 65 -31 29 0 130 64 139 88 3 9 7 47 8 84 2 65 1 66 -31 84 -117 61
-107 58 -141 40 -65 -34 -113 -62 -137 -78 -13 -10 -30 -18 -37 -18 -6 0 -35
43 -64 97 -58 107 -58 114 7 149 21 11 61 34 88 51 l48 30 -48 34 c-54 37
-117 46 -134 19 -5 -8 -10 -12 -10 -8 0 4 -33 -11 -74 -32 l-74 -39 -31 50
c-17 28 -31 56 -31 63 0 7 -3 16 -7 20 -4 3 -12 23 -19 43 -13 37 -5 63 18 63
18 0 176 81 189 96 10 12 10 29 1 77 -6 34 -14 90 -17 125 -6 60 -5 62 20 72
15 6 68 10 120 10 l93 0 6 -52 c4 -29 9 -92 12 -140 l6 -87 63 -30 c35 -17 66
-31 69 -31 3 0 6 26 6 58 0 33 3 94 7 136 l6 77 81 -6 c45 -3 101 -8 125 -11
l43 -6 -3 -131 -4 -131 59 -33 c32 -18 68 -33 80 -33 12 0 48 14 79 31 l57 31
0 56 c0 31 3 67 6 79 6 23 -11 36 -121 97 -56 31 -85 55 -85 68 0 6 18 35 40
67 22 31 40 61 40 66 1 6 10 21 21 34 21 26 17 27 106 -23 24 -13 58 -34 76
-45 19 -11 37 -18 40 -14 4 3 7 39 7 79 l0 72 -37 23 c-21 13 -56 34 -78 47
-22 13 -50 33 -62 44 l-22 20 22 32 c12 17 25 33 28 36 11 9 79 115 79 122 0
5 -279 8 -620 8 l-620 0 0 -1000z" id="node4" class="node"></path>
<path d="M1270 2980 c14 -11 50 -37 80 -57 30 -20 65 -45 78 -56 l22 -21 43
24 c23 13 60 38 82 55 22 18 50 38 63 44 49 26 19 31 -185 31 l-208 0 25 -20z" id="node5" class="node"></path>
<path d="M1726 2953 c15 -27 40 -66 55 -87 28 -39 38 -76 20 -76 -5 0 -32 -16
-60 -35 -28 -19 -53 -35 -55 -35 -3 0 -26 -14 -51 -32 l-45 -32 0 -72 c0 -42
5 -76 11 -80 6 -3 24 3 40 15 15 11 31 21 34 21 3 0 41 20 85 45 44 25 81 45
83 45 3 0 15 -24 27 -52 12 -29 31 -73 42 -97 38 -83 36 -86 -84 -147 l-108
-55 0 -82 0 -82 60 -38 c33 -20 63 -37 67 -37 4 0 38 14 74 31 65 31 67 32 73
77 3 24 6 83 6 130 l0 85 109 -5 c60 -3 114 -9 120 -12 7 -5 11 -47 11 -116 0
-60 4 -111 9 -114 5 -3 19 3 32 13 13 10 34 21 45 25 43 13 51 36 56 149 3 59
8 110 11 114 4 3 60 2 124 -3 109 -8 118 -10 116 -29 -1 -11 -7 -67 -13 -125
-12 -123 -17 -115 113 -170 45 -19 84 -37 87 -40 3 -4 13 -9 23 -13 16 -6 17
21 17 478 l0 485 -581 0 -581 0 28 -47z" id="node6" class="node"></path>
<path d="M1250 2886 c0 -7 -9 -25 -20 -39 -25 -31 -25 -43 -2 -51 14 -5 42
-23 98 -63 5 -5 19 -13 30 -19 17 -10 19 -25 22 -168 1 -86 0 -156 -3 -156 -3
0 -18 8 -33 19 -69 47 -180 103 -206 105 -23 1 -33 -6 -45 -26 -22 -38 -10
-54 82 -107 42 -25 78 -50 80 -55 2 -6 1 -62 -2 -125 l-6 -115 -90 -47 c-49
-26 -98 -48 -107 -48 -20 -1 -150 63 -188 92 -24 18 -25 23 -25 135 l0 117
-52 3 -53 3 -2 -90 c-1 -50 -3 -106 -5 -123 -2 -18 -4 -48 -4 -65 1 -18 -2
-33 -7 -33 -4 1 -38 19 -77 40 -38 22 -88 49 -110 60 -51 25 -78 42 -87 55 -4
6 -8 51 -8 100 0 126 -4 135 -50 135 -21 0 -40 -6 -43 -12 -2 -7 0 -64 6 -127
10 -113 10 -115 -13 -133 -12 -10 -30 -18 -40 -18 -9 0 -28 -8 -41 -18 -13
-11 -35 -22 -49 -26 -62 -16 -71 -44 -31 -95 l19 -25 89 46 c89 45 90 46 114
27 13 -10 28 -19 32 -19 5 0 41 -19 80 -43 40 -23 84 -49 99 -56 35 -18 35
-24 1 -41 -16 -8 -39 -22 -53 -31 -14 -9 -46 -28 -71 -41 -101 -56 -101 -56
-71 -107 24 -43 33 -42 158 32 57 33 62 33 108 2 20 -14 41 -25 46 -25 6 0 10
-4 10 -9 0 -5 10 -12 23 -15 12 -3 35 -17 50 -31 28 -24 28 -26 25 -132 -3
-116 -7 -123 -73 -159 -11 -6 -49 -28 -84 -49 -42 -25 -68 -35 -76 -29 -49 36
-172 114 -181 114 -11 0 -64 -73 -64 -87 1 -5 59 -42 130 -83 71 -41 128 -79
126 -85 -3 -10 -153 -106 -196 -125 -14 -6 -32 -18 -41 -26 -14 -13 -28 -8
-121 40 -57 30 -109 51 -115 48 -33 -22 -44 -92 -14 -92 10 0 24 -7 31 -15 7
-8 18 -15 24 -15 6 0 41 -15 76 -33 l65 -33 -4 -122 -3 -122 50 0 51 0 3 102
c3 113 -1 105 98 155 19 10 40 21 45 26 25 18 82 53 107 64 l27 12 3 -147 3
-147 45 1 45 1 7 44 c3 24 7 74 7 110 l1 67 43 23 c55 29 75 40 117 67 19 12
40 22 46 22 10 0 164 -97 192 -120 9 -8 12 -43 10 -132 l-3 -120 -97 -50 c-54
-27 -98 -54 -98 -61 0 -6 7 -31 16 -54 19 -48 28 -49 94 -9 30 18 95 53 178
97 12 7 24 10 27 7 3 -3 8 -73 12 -156 l6 -151 -24 -10 c-47 -20 -164 -107
-167 -125 -2 -10 6 -29 19 -42 23 -25 49 -32 49 -14 0 6 10 15 23 21 22 9 78
48 107 73 37 33 57 29 135 -26 42 -29 83 -57 91 -63 12 -8 22 -2 44 25 30 35
38 60 20 60 -5 0 -40 20 -77 45 -37 25 -70 45 -75 45 -4 0 -8 72 -8 160 0 88
4 160 8 160 4 0 14 -6 20 -12 12 -12 35 -25 170 -95 59 -31 80 -26 97 22 8 24
6 30 -18 51 -16 13 -35 24 -43 24 -8 0 -14 3 -14 8 0 4 -12 13 -27 20 -66 30
-69 35 -63 166 l5 119 60 32 c33 18 78 43 100 55 l41 21 60 -33 c33 -18 81
-44 107 -58 l47 -25 -2 -120 -3 -120 50 -6 c28 -3 53 -2 56 3 4 6 7 76 8 156
1 81 4 148 6 151 2 2 44 -18 92 -45 48 -27 105 -58 125 -68 58 -29 67 -51 70
-168 l3 -103 40 0 40 0 0 130 0 130 41 20 c22 11 68 33 102 48 34 16 62 34 62
39 0 12 -39 78 -46 78 -3 0 -44 -19 -91 -41 l-87 -41 -40 21 c-23 12 -68 37
-101 56 -33 19 -75 42 -92 52 -18 9 -33 20 -33 24 0 3 15 12 33 19 17 7 41 21
52 30 11 10 43 30 70 45 28 14 59 35 69 45 19 19 19 20 1 55 -11 19 -25 35
-32 35 -14 0 -65 -21 -73 -30 -9 -11 -102 -60 -114 -60 -10 0 -56 28 -173 104
-33 21 -33 22 -33 101 0 133 5 149 59 180 25 14 71 42 101 60 30 19 58 35 61
35 3 0 29 -17 57 -37 76 -55 122 -83 136 -83 14 0 66 68 66 86 0 5 -26 24 -57
42 -32 18 -76 44 -98 58 -22 13 -55 32 -72 41 -18 9 -33 20 -33 23 0 9 57 50
69 50 5 0 33 18 62 40 30 22 57 40 62 40 4 0 20 9 35 20 l28 21 108 -57 c59
-30 109 -54 110 -52 10 14 46 76 46 81 0 4 -34 21 -168 83 l-63 29 5 55 c3 30
7 84 8 120 l3 65 -52 3 -53 3 0 -85 c0 -85 -11 -136 -29 -136 -5 0 -36 -17
-68 -38 -32 -21 -69 -43 -83 -50 -14 -7 -41 -21 -60 -31 l-35 -19 -5 142 -5
141 -43 6 c-24 3 -45 3 -46 0 -2 -3 -7 -54 -11 -112 l-7 -106 -102 -52 c-55
-28 -106 -51 -113 -51 -6 0 -42 20 -80 45 -37 25 -78 48 -90 51 -22 6 -23 10
-23 135 l0 128 28 14 c15 9 52 27 82 42 30 14 65 32 77 40 l21 14 -21 51 c-11
27 -25 50 -30 50 -5 0 -53 -25 -106 -55 -54 -30 -101 -55 -105 -55 -4 0 -20
-9 -34 -21 l-27 -21 -6 59 c-4 32 -7 104 -8 161 -1 98 0 103 22 111 12 5 47
27 77 50 30 22 60 41 67 41 7 0 17 9 23 20 8 16 5 25 -19 52 -28 31 -30 32
-48 15 -11 -9 -23 -17 -28 -17 -4 0 -31 -18 -59 -39 -84 -64 -99 -69 -140 -37
-19 14 -37 26 -40 26 -3 0 -29 18 -58 40 -57 43 -68 47 -68 26z m228 -569 c7
-8 13 -68 14 -142 3 -116 5 -129 23 -139 11 -6 34 -20 50 -32 17 -11 37 -24
45 -27 8 -4 27 -15 41 -25 122 -79 247 -152 262 -152 11 0 59 23 107 50 93 53
133 62 149 31 17 -31 -21 -61 -177 -141 -23 -12 -44 -25 -46 -29 -2 -3 -7
-114 -10 -246 l-7 -240 68 -37 c104 -58 127 -72 140 -88 18 -22 15 -47 -8 -63
-19 -14 -29 -10 -126 49 -57 35 -111 64 -118 64 -7 0 -46 -18 -86 -40 -41 -21
-105 -56 -144 -76 -38 -20 -97 -51 -131 -70 l-61 -34 -6 -68 c-4 -37 -7 -97
-7 -134 0 -90 -33 -125 -74 -79 -15 16 -17 38 -15 150 2 72 1 132 -2 133 -2 2
-18 13 -36 26 -18 12 -35 22 -39 22 -4 0 -29 16 -55 35 -27 19 -53 35 -58 35
-4 0 -19 9 -32 19 -28 21 -79 53 -127 78 -32 17 -34 17 -80 -7 -25 -14 -60
-34 -77 -45 -53 -37 -115 -57 -131 -44 -23 19 -18 66 8 75 12 3 45 22 74 40
29 19 57 34 62 34 5 0 17 9 27 20 17 19 19 46 23 268 l5 248 -89 53 c-101 61
-114 74 -107 102 11 40 49 35 138 -20 85 -52 104 -58 121 -42 8 8 62 39 184
103 19 10 42 22 50 26 8 5 35 19 60 31 25 13 62 32 83 43 l37 20 0 120 c0 65
5 128 10 139 12 22 52 25 68 6z" id="node7" class="node"></path>
<path d="M1405 1961 c-10 -8 -105 -60 -255 -137 -47 -24 -98 -54 -114 -67
l-28 -23 -7 -230 c-4 -126 -5 -234 -3 -241 2 -7 27 -26 55 -43 76 -44 88 -52
134 -82 23 -15 44 -28 48 -28 3 0 27 -15 53 -32 57 -40 112 -68 130 -68 12 0
56 23 277 142 39 21 86 45 106 54 l35 16 12 141 c7 78 12 190 12 248 0 111 -2
116 -51 144 -29 16 -125 76 -196 123 -36 23 -69 42 -72 42 -4 0 -22 11 -41 25
-34 25 -78 33 -95 16z m88 -136 c34 -20 102 -60 151 -90 49 -30 93 -55 97 -55
11 0 12 -135 3 -271 l-7 -97 -141 -79 c-78 -44 -150 -83 -160 -87 -19 -7 -76
13 -76 26 0 5 -4 8 -9 8 -4 0 -60 31 -122 69 l-114 68 -3 182 c-1 110 1 181 7
181 5 0 16 7 25 15 8 8 49 34 91 58 43 23 96 52 119 65 22 13 45 27 50 32 15
15 23 13 89 -25z" id="node8" class="node"></path>
<path d="M1384 1738 c-12 -7 -45 -26 -75 -42 -30 -16 -67 -37 -82 -48 l-28
-20 3 -131 3 -130 45 -33 c25 -18 50 -33 55 -34 6 0 30 -14 54 -30 64 -43 57
-45 207 43 94 55 94 54 94 208 l0 98 -33 25 c-19 15 -37 26 -41 26 -3 0 -29
16 -58 36 -56 40 -111 52 -144 32z" id="node9" class="node"></path>
<path d="M2836 1975 c-9 -13 -16 -28 -16 -33 0 -12 -60 -122 -67 -122 -4 0
-59 27 -123 59 l-116 60 -62 -35 c-34 -19 -62 -39 -62 -44 0 -12 63 -60 78
-60 7 0 12 -4 12 -10 0 -5 5 -10 11 -10 6 0 30 -13 54 -30 24 -16 48 -30 54
-30 6 0 11 -5 11 -10 0 -18 -136 -205 -148 -205 -12 1 -72 38 -119 73 -89 66
-111 66 -192 2 l-51 -40 0 -69 0 -69 65 -42 c59 -38 67 -41 95 -31 17 5 43 19
57 31 14 11 31 20 37 20 6 0 28 12 49 26 21 14 44 24 50 21 7 -3 35 -48 62
-102 l50 -96 -30 -25 c-16 -13 -34 -24 -39 -24 -5 0 -31 -16 -57 -35 -27 -19
-54 -35 -60 -35 -16 0 10 -30 36 -41 11 -6 31 -17 45 -25 34 -20 68 -12 148
34 79 46 96 52 108 44 5 -4 21 -34 35 -67 23 -51 54 -120 67 -147 2 -5 -4 -8
-12 -8 -9 0 -24 -4 -34 -9 -57 -31 -169 -81 -181 -81 -10 0 -12 -11 -8 -42 17
-125 27 -241 22 -246 -3 -3 -56 -8 -118 -10 l-113 -4 -12 109 c-7 60 -12 123
-12 140 0 29 -6 35 -61 63 -66 33 -91 29 -88 -14 1 -11 1 -68 1 -124 l-2 -104
-87 7 c-49 3 -106 8 -127 12 l-39 5 5 129 c4 91 2 131 -6 138 -6 5 -38 24 -71
41 -53 28 -62 30 -89 19 -17 -7 -33 -16 -36 -20 -3 -3 -20 -14 -37 -23 l-33
-17 0 -82 1 -82 57 -37 c31 -20 76 -46 100 -57 23 -12 42 -28 42 -36 0 -8 -18
-40 -40 -71 -22 -32 -40 -62 -40 -68 -1 -6 -9 -21 -19 -34 -16 -18 -23 -20
-43 -12 -26 12 -91 48 -141 79 -19 11 -37 18 -40 14 -9 -9 -8 -136 1 -148 7
-11 70 -52 112 -73 14 -7 38 -24 53 -36 l28 -23 -65 -93 c-36 -51 -66 -97 -66
-101 0 -5 275 -9 620 -9 l620 0 0 1000 c0 550 -2 1000 -4 1000 -2 0 -11 -11
-20 -25z" id="node10" class="node"></path>
<path d="M0 484 l0 -484 575 0 c623 0 598 -2 555 53 -11 14 -20 28 -20 32 0 3
-13 26 -30 50 -32 47 -38 72 -17 77 6 2 56 32 110 67 l97 65 0 79 c0 77 0 78
-22 71 -13 -3 -28 -11 -35 -16 -7 -5 -27 -17 -45 -27 -18 -10 -59 -32 -92 -50
-32 -17 -59 -31 -61 -29 -1 2 -18 37 -37 78 -40 86 -62 149 -55 156 2 3 51 29
108 59 l104 53 3 86 3 85 -70 41 -69 41 -58 -31 c-33 -18 -62 -35 -66 -38 -9
-10 -16 -82 -17 -179 l-1 -83 -109 0 c-77 0 -112 4 -118 13 -4 6 -10 59 -13
116 -3 58 -10 106 -15 108 -6 2 -35 -12 -65 -29 l-55 -33 -6 -115 c-4 -63 -7
-117 -8 -119 -2 -7 -226 10 -233 17 -4 4 -4 62 1 127 11 137 12 133 -77 169
-26 10 -73 32 -104 47 l-58 28 0 -485z" id="node11" class="node"></path>
<path d="M1369 132 c-14 -9 -47 -33 -75 -52 -27 -19 -58 -40 -68 -46 -54 -29
-29 -34 175 -34 l203 0 -28 29 c-15 15 -39 34 -54 42 -30 16 -34 18 -78 54
-37 29 -40 29 -75 7z" id="node12" class="node"></path>
</g>
</svg>